<svg xmlns="http://www.w3.org/2000/svg" xmlns:xlink="http://www.w3.org/1999/xlink" preserveAspectRatio="xMidYMid" width="1279" height="1616.656" viewBox="0 0 5000 6320">
  <defs>
    <style>
      .cls-1 {
        fill: #d75710;
      }

      .cls-1, .cls-2, .cls-3, .cls-4, .cls-5, .cls-6 {
        fill-rule: evenodd;
      }

      .cls-2 {
        fill: #a5450b;
      }

      .cls-3 {
        fill: #005e91;
      }

      .cls-4 {
        fill: #f29400;
      }

      .cls-5 {
        fill: #004a71;
      }

      .cls-6 {
        fill: #01a6de;
      }
    </style>
  </defs>
  <g>
    <path d="M3029.000,2738.000 L3028.000,4029.000 L3864.824,4366.264 C3864.824,4366.264 3912.164,4376.011 3947.176,4330.969 C3978.857,4290.213 3982.471,4248.614 3982.471,4248.614 L3988.353,3254.472 C3988.353,3254.472 3981.060,3204.554 3953.059,3166.235 C3925.178,3128.081 3870.706,3101.528 3870.706,3101.528 L3029.000,2738.000 Z" class="cls-1"/>
    <path d="M3023.647,3348.592 L3876.588,3148.588 L3029.529,3560.362 L3023.647,3348.592 Z" class="cls-2"/>
    <path d="M3029.529,4030.962 L3029.529,2736.813 L1164.824,1930.911 C1164.824,1930.911 1096.348,1904.647 1047.176,1983.854 C1012.264,2040.090 1018.000,2104.000 1018.000,2104.000 L1017.765,3030.938 C1017.765,3030.938 1013.658,3095.474 1047.176,3142.705 C1078.273,3186.524 1147.176,3213.295 1147.176,3213.295 L3029.529,4030.962 Z" class="cls-3"/>
    <path d="M3982.471,4248.614 L3988.353,3242.707 C3988.353,3242.707 3983.921,3190.520 3929.529,3160.353 C3889.941,3138.396 3829.529,3160.353 3829.529,3160.353 L1135.412,4325.086 C1135.412,4325.086 1079.567,4356.541 1047.176,4407.441 C1017.966,4453.344 1011.882,4519.209 1011.882,4519.209 L1011.882,5478.055 C1011.882,5478.055 1023.389,5554.380 1064.824,5578.058 C1105.739,5601.438 1176.588,5572.175 1176.588,5572.175 L3876.588,4395.676 C3876.588,4395.676 3921.080,4370.531 3953.059,4325.086 C3975.047,4293.840 3982.471,4248.614 3982.471,4248.614 Z" class="cls-4"/>
    <path d="M1159.000,3156.000 L2876.588,2672.106 L2541.294,2525.043 L1159.000,3156.000 Z" class="cls-5"/>
    <path d="M1011.882,2089.739 L1011.882,3042.703 C1011.882,3042.703 1016.220,3122.723 1058.941,3148.588 C1114.011,3181.928 1194.235,3142.705 1194.235,3142.705 L3882.471,1966.206 C3882.471,1966.206 3926.688,1945.474 3953.059,1907.381 C3979.628,1869.002 3988.353,1795.614 3988.353,1795.614 L3988.353,836.767 C3988.353,836.767 3985.328,756.488 3917.765,736.765 C3874.943,724.265 3823.647,742.647 3823.647,742.647 L1129.000,1908.000 C1129.000,1908.000 1076.739,1931.436 1043.000,1984.000 C1008.004,2038.522 1011.882,2089.739 1011.882,2089.739 Z" class="cls-6"/>
  </g>
</svg>
